<?xml version="1.0" encoding="iso-8859-1"?>
<!-- Generator: Adobe Illustrator 18.0.0, SVG Export Plug-In . SVG Version: 6.00 Build 0)  -->
<!DOCTYPE svg PUBLIC "-//W3C//DTD SVG 1.1//EN" "http://www.w3.org/Graphics/SVG/1.1/DTD/svg11.dtd">
<svg version="1.1" id="Capa_1" xmlns="http://www.w3.org/2000/svg" xmlns:xlink="http://www.w3.org/1999/xlink" x="0px" y="0px"
	 viewBox="0 0 430 430" style="enable-background:new 0 0 430 430;" xml:space="preserve">
<g>
	<path d="M156.377,240.24h-18.555c-3.379,0-6.113,2.734-6.113,6.105v18.563c0,3.368,2.734,6.1,6.113,6.1h18.555
		c3.375,0,6.106-2.731,6.106-6.1v-18.563C162.483,242.975,159.752,240.24,156.377,240.24z"/>
	<path d="M292.179,291.524h-18.556c-3.374,0-6.107,2.731-6.107,6.099v18.564c0,3.369,2.733,6.103,6.107,6.103h18.556
		c3.378,0,6.112-2.734,6.112-6.103v-18.564C298.291,294.256,295.557,291.524,292.179,291.524z"/>
	<path d="M156.377,291.524h-18.555c-3.379,0-6.113,2.731-6.113,6.099v18.564c0,3.369,2.734,6.103,6.113,6.103h18.555
		c3.375,0,6.106-2.734,6.106-6.103v-18.564C162.483,294.256,159.752,291.524,156.377,291.524z"/>
	<path d="M292.179,240.24h-18.556c-3.374,0-6.107,2.734-6.107,6.105v18.563c0,3.368,2.733,6.1,6.107,6.1h18.556
		c3.378,0,6.112-2.731,6.112-6.1v-18.563C298.291,242.975,295.557,240.24,292.179,240.24z"/>
	<path d="M323.424,121.469c-4.114,0-8.213,0.235-12.277,0.703c-4.898-20.225-15.654-38.646-31.178-53.024
		c-19.752-18.295-45.464-28.37-72.4-28.37c-49.559,0-91.801,33.842-103.422,80.719C46.495,122.79,0,170.09,0,228.046
		c0,53.192,39.17,97.407,90.178,105.318c1.099,12.19,7.813,25.272,18.464,35.642c13.39,13.037,31.56,20.217,51.161,20.217h110.395
		c19.695,0,37.9-7.188,51.264-20.238c10.592-10.346,17.272-23.421,18.362-35.621C390.831,325.452,430,281.238,430,228.046
		C430,169.279,382.19,121.469,323.424,121.469z M315,330.737c0,13.019-6.637,24.483-16.709,31.198v-13.024
		c0-3.378-2.734-6.109-6.112-6.109h-18.556c-3.374,0-6.107,2.731-6.107,6.109v18.556c0,0.253,0.021,0.503,0.052,0.742H162.432
		c0.031-0.239,0.052-0.489,0.052-0.742v-18.556c0-3.378-2.731-6.109-6.106-6.109h-18.555c-3.379,0-6.113,2.731-6.113,6.109v13.024
		C121.638,355.22,115,343.756,115,330.737v-98.943c0-13.02,6.638-24.483,16.709-31.199v13.024c0,3.378,2.734,6.109,6.113,6.109
		h18.555c3.375,0,6.106-2.731,6.106-6.109v-18.556c0-0.253-0.02-0.502-0.052-0.742h105.137c-0.031,0.24-0.052,0.489-0.052,0.742
		v18.556c0,3.378,2.733,6.109,6.107,6.109h18.556c3.378,0,6.112-2.731,6.112-6.109v-13.024c10.072,6.716,16.709,18.18,16.709,31.199
		V330.737z"/>
</g>
<g>
</g>
<g>
</g>
<g>
</g>
<g>
</g>
<g>
</g>
<g>
</g>
<g>
</g>
<g>
</g>
<g>
</g>
<g>
</g>
<g>
</g>
<g>
</g>
<g>
</g>
<g>
</g>
<g>
</g>
</svg>
